<svg width="320" height="220" viewBox="0 0 320 220" fill="none" xmlns="http://www.w3.org/2000/svg">
<path d="M27.7856 96.8584C23.3562 98.2101 19.2104 101.483 18.1039 106.024C16.8383 111.242 19.7567 116.502 20.1785 121.86C21.5409 139.416 -3.1821 151.801 0.344817 169.046C1.74521 175.902 7.40556 180.946 12.9829 185.113C21.9178 191.767 31.8312 197.645 42.8096 199.304C59.4725 201.826 76.8823 194.414 93.0785 199.098C106.142 202.878 116.138 213.953 129.112 218.04C138.987 221.152 149.627 219.926 159.886 218.665C165.418 217.988 171.213 217.205 175.677 213.852C183.976 207.61 184.498 195.284 190.055 186.451C198.637 172.828 217.454 170.153 233.232 172.8C249.01 175.448 264.331 181.966 280.316 181.435C283.732 181.32 287.232 180.852 290.212 179.157C293.836 177.1 296.284 173.475 298.449 169.887C311.977 147.382 319.403 121.676 319.98 95.353C320.073 90.8297 319.914 86.1108 317.809 82.1185C315.146 77.0678 309.825 74.0464 304.527 72.0136C291.806 67.1236 277.754 66.3237 265.289 60.8085C253.266 55.4888 243.529 46.1593 233.059 38.1642C212.194 22.2619 188.01 11.3822 162.351 6.35455C156.338 5.18095 150.097 4.34265 144.122 5.69789C137.238 7.2592 131.304 11.5939 125.969 16.2603C111.775 28.674 100.399 43.9903 87.3178 57.595C78.2942 66.9773 68.4683 75.5366 57.9545 83.1733C53.1137 86.6976 47.9685 90.8821 42.5744 93.4878C37.6368 95.8699 33.0068 95.2691 27.7856 96.8584Z" fill="#F9F9F9"/>
<path opacity="0.2" d="M107.354 25.5795L107.167 25.5325L48.0431 149.314L256.468 165.403L256.703 165.421L264.34 64.9388L264.355 64.7412L107.354 25.5795ZM167.227 105.182L48.8634 148.686L107.342 26.2565L167.227 105.182ZM167.575 105.555L255.617 164.865L49.4958 148.955L167.575 105.555ZM167.683 105.006L107.887 26.1959L263.361 64.9764L167.683 105.006ZM256.283 164.748L168.099 105.342L263.842 65.2848L256.283 164.748Z" fill="#2C4981"/>
<path d="M290.978 67.0315C290.79 71.7968 289.45 76.4455 287.075 80.5806C284.699 84.7157 281.357 88.214 277.335 90.7768C273.313 93.3395 268.731 94.8905 263.979 95.297C259.228 95.7036 254.448 94.9537 250.05 93.1114C247.986 92.2468 246.03 91.1475 244.218 89.8353C240.755 87.3355 237.874 84.1173 235.769 80.4009V80.3976C233.526 76.4227 232.235 71.9816 231.997 67.4234C231.759 62.8651 232.582 58.3139 234.4 54.1272C236.218 49.9405 238.983 46.2325 242.476 43.2944C245.969 40.3563 250.096 38.2682 254.532 37.1942C258.968 36.1201 263.593 36.0894 268.043 37.1044C272.493 38.1193 276.647 40.1524 280.179 43.0438C283.711 45.9352 286.524 49.6061 288.398 53.7683C290.272 57.9304 291.155 62.4703 290.978 67.0313L290.978 67.0315Z" fill="white"/>
<path opacity="0.09" d="M290.978 67.0315C290.79 71.7968 289.45 76.4455 287.075 80.5806C284.699 84.7157 281.357 88.214 277.335 90.7768C273.313 93.3395 268.731 94.8905 263.979 95.297C259.228 95.7036 254.448 94.9537 250.05 93.1114C247.986 92.2468 246.03 91.1475 244.218 89.8353C240.755 87.3355 237.874 84.1173 235.769 80.4009V80.3976C233.526 76.4227 232.235 71.9816 231.997 67.4234C231.759 62.8651 232.582 58.3139 234.4 54.1272C236.218 49.9405 238.983 46.2325 242.476 43.2944C245.969 40.3563 250.096 38.2682 254.532 37.1942C258.968 36.1201 263.593 36.0894 268.043 37.1044C272.493 38.1193 276.647 40.1524 280.179 43.0438C283.711 45.9352 286.524 49.6061 288.398 53.7683C290.272 57.9304 291.155 62.4703 290.978 67.0313L290.978 67.0315Z" fill="#2C4981"/>
<path d="M268.459 43.4046C268.459 43.4046 275.517 43.491 273.083 53.2174L272.42 53.2499L271.075 53.3154" fill="#0C0C0C"/>
<path d="M260.578 63.4222C260.611 63.4191 260.741 69.4859 267.793 69.231C272.675 69.0553 274.611 63.958 274.723 63.9622C274.202 63.8304 273.324 63.6333 273.096 63.5004C272.346 63.059 271.414 62.5936 271.225 61.0954C271.116 60.2318 271.527 55.8522 271.487 54.9814L263.95 56.3591C263.983 58.1966 264.549 62.4748 261.959 63.1276C261.527 63.2356 261.064 63.3322 260.578 63.4222Z" fill="#FFCAB6"/>
<path opacity="0.52" d="M263.647 61.4537C263.779 61.081 263.869 60.695 263.917 60.3026C264.034 59.4075 264.053 58.5024 263.973 57.6033C265.499 57.4572 266.954 56.8859 268.173 55.9542C268.291 56.471 268.968 58.7407 268.736 59.2194C268.302 60.1248 266.367 61.5594 263.647 61.4537Z" fill="#0C0C0C"/>
<path d="M265.358 60.3818C268.312 60.1703 271.876 58.3716 272 54.3681L272.112 50.7564C272.236 46.7535 270.233 43.4434 266.465 43.3269C262.696 43.2094 259.779 46.368 259.655 50.3709L259.605 51.9699C259.598 52.5194 259.628 53.0688 259.695 53.6143C259.862 55.0566 260.122 57.2497 261.072 58.7473C261.968 60.1609 263.47 60.5164 265.358 60.3818Z" fill="#FFCAB6"/>
<path d="M271.728 55.5812C272.874 55.6164 273.84 54.4198 273.876 53.2746C273.911 52.1294 273.002 51.4689 271.857 51.4334L271.243 52.1825L270.744 55.5506L271.728 55.5812Z" fill="#FFCAB6"/>
<path d="M259.849 54.8231C260.056 55.0684 260.321 55.2581 260.619 55.3749C260.918 55.4916 261.242 55.5318 261.56 55.4916C262.241 55.4059 262.693 55.6854 263.262 55.6293C263.739 55.5823 263.822 55.3617 264.637 55.3136C267.781 55.1273 270.141 54.929 270.294 50.9828L272.296 49.2052C272.296 49.2052 273.19 60.1407 267.275 61.5944C263.641 62.487 260.232 62.1607 259.793 58.7472C259.437 55.9737 259.849 54.8231 259.849 54.8231Z" fill="#0C0C0C"/>
<path d="M261.339 52.5392C261.595 52.5392 261.803 52.3313 261.803 52.0748C261.803 51.8183 261.595 51.6104 261.339 51.6104C261.082 51.6104 260.874 51.8183 260.874 52.0748C260.874 52.3313 261.082 52.5392 261.339 52.5392Z" fill="#0C0C0C"/>
<path d="M265.488 52.4528C265.744 52.4528 265.952 52.2449 265.952 51.9884C265.952 51.7319 265.744 51.524 265.488 51.524C265.231 51.524 265.023 51.7319 265.023 51.9884C265.023 52.2449 265.231 52.4528 265.488 52.4528Z" fill="#0C0C0C"/>
<path d="M270.622 53.7192C270.622 53.7192 270.339 48.0471 268.627 47.6659C267.487 47.4119 264.683 48.9844 262.122 48.4474C261.002 48.2125 259.929 48.4709 259.811 49.0004C259.764 49.2099 258.878 47.3516 260.68 45.0903C262.115 43.29 266.782 42.7835 268.858 43.4201C274.607 45.1833 272.089 51.6873 272.089 51.6873L271.795 53.6356L270.622 53.7192Z" fill="#0C0C0C"/>
<path d="M273.235 49.1456C274.927 49.1456 276.298 47.7739 276.298 46.0819C276.298 44.3899 274.927 43.0182 273.235 43.0182C271.543 43.0182 270.171 44.3899 270.171 46.0819C270.171 47.7739 271.543 49.1456 273.235 49.1456Z" fill="#0C0C0C"/>
<g opacity="0.52">
<path d="M263.318 55.4469H263.311C262.942 55.4363 262.324 55.3776 262.331 55.1016C262.338 54.8728 263.034 52.4208 263.113 52.1417C263.12 52.1177 263.136 52.0975 263.158 52.0853C263.18 52.0732 263.206 52.0702 263.23 52.077C263.254 52.0838 263.274 52.0999 263.286 52.1217C263.298 52.1435 263.301 52.1692 263.294 52.1932C262.985 53.2792 262.524 54.9512 262.519 55.1061C262.554 55.1723 262.934 55.247 263.316 55.258C263.341 55.2578 263.365 55.2674 263.383 55.2848C263.4 55.3022 263.411 55.326 263.411 55.3509C263.411 55.3759 263.402 55.3999 263.384 55.4177C263.367 55.4355 263.343 55.4457 263.318 55.446V55.4469Z" fill="#0C0C0C"/>
</g>
<path d="M262.194 50.4969C261.813 50.384 261.408 50.3759 261.023 50.4734C260.833 50.52 260.652 50.595 260.484 50.6956C260.318 50.7943 260.165 50.9136 260.03 51.0506C260.006 51.0717 259.992 51.1013 259.99 51.1329C259.988 51.1645 259.999 51.1956 260.02 51.2191C260.041 51.2427 260.071 51.2569 260.103 51.2587C260.134 51.2604 260.165 51.2495 260.189 51.2284L260.196 51.2223C260.323 51.108 260.463 51.01 260.615 50.9308C260.763 50.8519 260.923 50.796 261.089 50.7649C261.416 50.7011 261.754 50.7246 262.068 50.8333L262.08 50.8378C262.102 50.8464 262.126 50.8505 262.15 50.8498C262.174 50.8491 262.197 50.8438 262.219 50.8339C262.241 50.8241 262.26 50.8101 262.276 50.7926C262.293 50.7752 262.305 50.7547 262.314 50.7323C262.322 50.7099 262.325 50.6862 262.324 50.6624C262.323 50.6385 262.317 50.6152 262.307 50.5937C262.297 50.5721 262.283 50.5528 262.265 50.5369C262.247 50.521 262.227 50.5087 262.204 50.5009L262.194 50.4969Z" fill="#0C0C0C"/>
<path d="M264.931 50.8338C265.233 50.6948 265.567 50.6385 265.899 50.6705C266.067 50.6852 266.231 50.7254 266.387 50.7896C266.545 50.8537 266.695 50.9375 266.832 51.0389L266.839 51.044C266.865 51.0607 266.896 51.0669 266.926 51.0615C266.956 51.056 266.983 51.0392 267.001 51.0146C267.019 50.99 267.027 50.9595 267.023 50.9292C267.019 50.8989 267.004 50.8713 266.98 50.8519C266.832 50.7288 266.668 50.6249 266.493 50.5427C266.317 50.4589 266.129 50.4019 265.935 50.3738C265.542 50.3146 265.14 50.3622 264.772 50.5117C264.728 50.5304 264.694 50.5654 264.676 50.6091C264.659 50.6528 264.659 50.7018 264.677 50.7453C264.695 50.7889 264.73 50.8236 264.773 50.8419C264.817 50.8602 264.865 50.8607 264.909 50.8432L264.918 50.8394L264.931 50.8338Z" fill="#0C0C0C"/>
<path d="M283.745 78.5708C283.483 80.5541 283.226 83.2784 282.997 86.0952C282.103 87.0473 281.146 87.9392 280.134 88.7652C279.49 89.2879 278.826 89.7848 278.141 90.2559C274.438 92.7836 270.209 94.4365 265.773 95.0895C261.338 95.7425 256.812 95.3786 252.537 94.0253C252.479 91.4088 252.4 87.8796 252.321 84.6463C252.23 80.9166 252.139 77.5771 252.09 76.4799C251.887 72.1251 250.733 69.2195 251.606 66.8436C251.867 66.1404 252.286 65.5067 252.832 64.9919C254.865 63.0019 259.915 63.0473 261.941 63.126C261.976 63.1274 261.35 67.8023 268.015 67.7459C272.913 67.7058 273.281 63.566 273.281 63.566C273.281 63.566 275.695 63.8171 277.298 64.0954C279.92 64.5547 281.625 65.5164 282.951 66.9526C284.189 68.2919 284.919 69.7135 283.745 78.5708Z" fill="#2C4981"/>
<path d="M244.564 63.5868L244.766 58.5985C244.77 58.4888 244.752 58.3794 244.712 58.2771C244.672 58.1749 244.611 58.0822 244.533 58.0048C244.455 57.9274 244.362 57.8672 244.259 57.8278C244.157 57.7885 244.047 57.771 243.938 57.7763C243.736 57.7927 243.547 57.8834 243.408 58.031C243.269 58.1785 243.19 58.3724 243.186 58.575L243.143 59.6448L241.734 56.2191C241.584 55.8355 241.155 55.4606 240.735 55.6572C240.569 55.7223 240.43 55.8418 240.34 55.9963C240.25 56.1507 240.216 56.331 240.242 56.5076C240.238 56.5081 240.234 56.509 240.23 56.5102C240.228 56.5117 240.225 56.5134 240.223 56.5154L239.992 55.9239C239.949 55.8143 239.882 55.7157 239.796 55.6352C239.71 55.5547 239.608 55.4944 239.496 55.4586C239.383 55.4228 239.265 55.4125 239.148 55.4284C239.032 55.4444 238.92 55.4861 238.822 55.5506C238.669 55.6552 238.556 55.8092 238.503 55.9868C238.45 56.1644 238.46 56.3548 238.531 56.5262L238.629 56.7777C238.623 56.784 238.618 56.7912 238.615 56.7991C238.509 56.6446 238.351 56.5328 238.171 56.4837C237.99 56.4345 237.798 56.4511 237.628 56.5306C237.445 56.6233 237.304 56.7816 237.232 56.9739C237.161 57.1663 237.164 57.3785 237.242 57.5682L237.487 58.1935C237.477 58.1871 237.466 58.1831 237.454 58.1818C237.443 58.1805 237.431 58.1819 237.42 58.186C237.408 58.1917 237.397 58.2008 237.389 58.2123C237.257 58.1008 237.091 58.0359 236.918 58.0276C236.745 58.0193 236.574 58.0681 236.431 58.1665C236.284 58.273 236.176 58.4261 236.127 58.6012C236.077 58.7763 236.088 58.9631 236.157 59.1313L238.219 64.4071C238.507 65.1452 239.01 65.7803 239.661 66.2311C240.313 66.6818 241.085 66.9277 241.877 66.9371C242.56 66.9452 243.22 66.6866 243.715 66.2162C244.211 65.7458 244.504 65.1007 244.531 64.4179L244.564 63.5868Z" fill="#FFCAB6"/>
<g opacity="0.2">
<path d="M241.619 59.9056C241.601 59.9125 241.581 59.9121 241.564 59.9046C241.546 59.897 241.532 59.8829 241.525 59.8652L240.19 56.6053C240.186 56.5964 240.183 56.5866 240.183 56.5767C240.183 56.5668 240.184 56.557 240.188 56.5477C240.192 56.5385 240.197 56.5301 240.204 56.523C240.211 56.516 240.219 56.5104 240.228 56.5066C240.238 56.5029 240.248 56.501 240.257 56.5012C240.267 56.5014 240.277 56.5036 240.286 56.5076C240.295 56.5117 240.303 56.5176 240.31 56.5249C240.317 56.5322 240.322 56.5408 240.325 56.5501L241.66 59.81C241.664 59.8188 241.666 59.8283 241.666 59.8379C241.666 59.8475 241.664 59.857 241.66 59.8658C241.656 59.8747 241.651 59.8827 241.644 59.8894C241.637 59.8962 241.629 59.9015 241.62 59.9051L241.619 59.9056Z" fill="#0C0C0C"/>
</g>
<g opacity="0.2">
<path d="M240.198 60.5342C240.18 60.5411 240.16 60.5408 240.142 60.5332C240.125 60.5256 240.111 60.5113 240.104 60.4935L238.614 56.8555C238.607 56.8377 238.607 56.8179 238.615 56.8003C238.622 56.7828 238.636 56.7688 238.654 56.7615C238.672 56.7552 238.691 56.7557 238.708 56.7631C238.726 56.7704 238.74 56.7841 238.748 56.8012L240.238 60.4393C240.245 60.4572 240.245 60.4773 240.237 60.4951C240.23 60.5129 240.216 60.5271 240.198 60.5344V60.5342Z" fill="#0C0C0C"/>
</g>
<g opacity="0.2">
<path d="M238.662 61.2237C238.644 61.2306 238.624 61.2303 238.607 61.2227C238.589 61.2151 238.575 61.2008 238.568 61.183L237.38 58.2812C237.372 58.2633 237.372 58.2433 237.38 58.2255C237.387 58.2076 237.402 58.1935 237.419 58.1862C237.437 58.1789 237.457 58.1789 237.475 58.1864C237.493 58.1939 237.507 58.2081 237.514 58.226L238.704 61.1271C238.711 61.145 238.711 61.1651 238.703 61.183C238.696 61.2008 238.681 61.2149 238.664 61.2223L238.662 61.2237Z" fill="#0C0C0C"/>
</g>
<path d="M261.077 71.4074L248.936 90.0724C248.495 90.7508 247.903 91.319 247.208 91.7332C246.173 91.1626 245.175 90.5288 244.218 89.8354C242.179 88.3642 240.337 86.6383 238.735 84.6998L236.185 64.9288L246.39 63.2936L247.554 72.8103L252.216 65.6425L261.077 71.4074Z" fill="#2C4981"/>
<path d="M262.5 56.4653C263.613 56.5393 264.72 56.24 265.644 55.6147C265.676 55.5932 265.714 55.5813 265.753 55.5803C265.791 55.5793 265.829 55.5894 265.862 55.6093C265.895 55.6291 265.922 55.658 265.94 55.6926C265.957 55.7271 265.964 55.7659 265.96 55.8043C265.886 56.462 265.561 57.6718 264.181 57.8259C263.29 57.9253 262.644 57.241 262.318 56.786C262.296 56.7545 262.283 56.7172 262.281 56.6786C262.279 56.64 262.288 56.6015 262.307 56.5679C262.326 56.5342 262.354 56.5066 262.388 56.4885C262.423 56.4703 262.461 56.4623 262.5 56.4653Z" fill="white"/>
<path d="M287.037 80.6685C285.243 83.7616 282.904 86.5046 280.134 88.7652C279.49 89.2879 278.826 89.7848 278.141 90.2559L273.4 72.217L284.078 69.4081L287.037 80.6685Z" fill="#2C4981"/>
<path d="M278.245 90.1854C278.211 90.2075 278.175 90.2324 278.141 90.2559C278.108 90.2794 278.074 90.3029 278.04 90.3247L274.426 76.5825L274.654 76.5231L278.245 90.1854Z" fill="#0C0C0C"/>
<path d="M252.349 85.4959C252.32 85.4947 252.292 85.4825 252.271 85.4617C252.251 85.441 252.238 85.4132 252.237 85.3838L252.004 80.2628C252.002 80.2316 252.013 80.2012 252.035 80.1782C252.056 80.1552 252.085 80.1414 252.116 80.14C252.147 80.1386 252.178 80.1497 252.201 80.1707C252.224 80.1917 252.237 80.2211 252.239 80.2522L252.472 85.3732C252.473 85.4043 252.462 85.4347 252.441 85.4577C252.42 85.4807 252.391 85.4944 252.36 85.4959H252.349Z" fill="#0C0C0C"/>
<path d="M164.524 132.884C181.145 132.884 194.619 119.409 194.619 102.788C194.619 86.167 181.145 72.6928 164.524 72.6928C147.903 72.6928 134.429 86.167 134.429 102.788C134.429 119.409 147.903 132.884 164.524 132.884Z" fill="white"/>
<path opacity="0.09" d="M194.62 102.787C194.62 108.74 192.855 114.558 189.548 119.507C186.241 124.456 181.541 128.314 176.042 130.591C170.542 132.869 164.491 133.465 158.653 132.304C152.816 131.143 147.453 128.277 143.244 124.068C139.035 119.859 136.169 114.496 135.008 108.659C133.847 102.821 134.443 96.7696 136.721 91.2705C138.998 85.7714 142.856 81.0712 147.805 77.7643C152.754 74.4574 158.572 72.6924 164.525 72.6924C168.481 72.6778 172.401 73.4462 176.059 74.9535C179.717 76.4607 183.04 78.6769 185.838 81.4744C188.635 84.2719 190.851 87.5953 192.359 91.2532C193.866 94.9111 194.634 98.8311 194.62 102.787Z" fill="#2C4981"/>
<path d="M151.202 85.0375C151.202 85.0375 150.9 89.5807 149.877 91.229C146.935 95.9742 146.083 101.312 149.029 104.102C151.976 106.892 170.771 106.93 172.195 100.515C173.393 95.1144 170.821 94.5337 170.196 90.0787C169.912 88.0629 169.133 83.8359 169.133 83.8359" fill="#0A0A0A"/>
<path d="M167.33 99.5737C167.298 99.5695 166.938 105.544 159.998 105.024C155.193 104.664 153.48 99.5662 153.37 99.5662C153.888 99.4563 154.76 99.2961 154.991 99.1735C155.747 98.7668 156.684 98.344 156.927 96.8746C157.068 96.029 156.829 91.6958 156.904 90.8391L164.279 92.4851C164.176 94.2939 163.454 98.4894 165.982 99.2317C166.402 99.3536 166.855 99.4666 167.33 99.5737Z" fill="#FFCAB6"/>
<path opacity="0.5" d="M164.381 97.5166C164.265 97.1442 164.191 96.7604 164.159 96.3719C164.078 95.4854 164.094 94.5927 164.207 93.7097C162.708 93.5075 161.296 92.889 160.131 91.9243C159.994 92.4301 159.241 94.6399 159.45 95.1208C159.845 96.0287 161.696 97.5166 164.381 97.5166Z" fill="#0C0C0C"/>
<path d="M163.427 95.6555C160.519 95.9374 156.757 94.7736 155.978 90.9016L155.275 87.4078C154.496 83.5358 155.898 79.9875 159.543 79.2539C163.189 78.52 166.546 81.1096 167.325 84.9826L167.636 86.5292C167.935 88.015 168.615 95.1535 163.427 95.6555Z" fill="#FFCAB6"/>
<path opacity="0.1" d="M161.579 90.5823C162.057 90.5252 162.411 90.1944 162.369 89.8433C162.327 89.4923 161.905 89.254 161.427 89.3111C160.949 89.3682 160.595 89.699 160.637 90.05C160.678 90.4011 161.1 90.6394 161.579 90.5823Z" fill="#0C0C0C"/>
<path opacity="0.1" d="M166.635 89.1783C166.678 89.5285 167.099 89.7655 167.578 89.7101C167.661 89.7002 167.742 89.6818 167.821 89.6551C167.843 89.2372 167.845 88.8351 167.832 88.463C167.699 88.4298 167.562 88.4219 167.426 88.4395C166.947 88.4956 166.593 88.8264 166.635 89.1783Z" fill="#0C0C0C"/>
<path opacity="0.5" d="M164.521 90.2614H164.528C164.675 90.2303 164.821 90.1911 164.965 90.1439C165.179 90.0735 165.458 89.9548 165.42 89.7613C165.375 89.5404 164.292 87.2818 164.168 87.0248C164.157 87.0037 164.138 86.9879 164.115 86.9806C164.092 86.9732 164.067 86.9749 164.045 86.9853C164.024 86.9958 164.007 87.0141 163.998 87.0365C163.99 87.059 163.99 87.0839 163.999 87.1061C164.461 88.0692 165.206 89.6497 165.236 89.7981C165.212 89.8674 164.857 90.0028 164.49 90.0768C164.467 90.0821 164.447 90.0961 164.434 90.1159C164.42 90.1357 164.415 90.1598 164.419 90.1834C164.423 90.207 164.435 90.2282 164.454 90.2427C164.473 90.2573 164.497 90.2642 164.521 90.2619V90.2614Z" fill="#0C0C0C"/>
<path d="M152.366 88.662L155.635 88.0235C158.103 86.9899 158.804 82.6882 158.804 82.6882C158.804 82.6882 161.851 85.59 169.133 83.8353C169.133 83.8353 167.551 73.6693 156.798 76.7551C153.331 77.7499 150.875 81.2842 151.241 85.965C151.496 89.2459 152.366 88.662 152.366 88.662Z" fill="#0A0A0A"/>
<path d="M156.442 92.0357C155.334 92.2586 154.197 91.2542 153.975 90.1461C153.753 89.038 154.527 88.2464 155.635 88.0235L156.356 88.6509L157.395 91.844L156.442 92.0357Z" fill="#FFCAB6"/>
<path d="M164.954 85.2236C165.231 85.0273 165.556 84.9081 165.894 84.8783C166.064 84.862 166.235 84.8715 166.402 84.9062C166.57 84.9405 166.734 84.9957 166.889 85.0706L166.894 85.0728C166.911 85.0797 166.93 85.0798 166.947 85.073C166.964 85.0663 166.978 85.0533 166.986 85.0367C166.993 85.0201 166.995 85.0011 166.989 84.9836C166.983 84.9662 166.971 84.9516 166.955 84.9429C166.791 84.8563 166.617 84.7908 166.436 84.7479C166.255 84.7037 166.068 84.687 165.881 84.6985C165.504 84.7195 165.139 84.8411 164.824 85.0509C164.812 85.0587 164.801 85.0688 164.793 85.0807C164.785 85.0926 164.779 85.106 164.776 85.1202C164.773 85.1343 164.773 85.1489 164.776 85.1631C164.779 85.1773 164.785 85.1907 164.793 85.2027C164.801 85.2146 164.811 85.2248 164.824 85.2326C164.836 85.2404 164.849 85.2457 164.864 85.2482C164.878 85.2506 164.892 85.2502 164.907 85.2469C164.921 85.2436 164.934 85.2375 164.946 85.229L164.948 85.2273L164.954 85.2236Z" fill="#0C0C0C"/>
<path d="M161.969 85.6361C161.597 85.5623 161.213 85.5895 160.856 85.7148C160.68 85.7756 160.513 85.8627 160.363 85.9732C160.213 86.082 160.077 86.2092 159.959 86.3519C159.947 86.3661 159.941 86.3844 159.942 86.403C159.943 86.4215 159.951 86.4389 159.965 86.4514C159.979 86.464 159.997 86.4707 160.016 86.4702C160.034 86.4697 160.052 86.4619 160.065 86.4487L160.069 86.4447C160.183 86.316 160.312 86.2023 160.455 86.1062C160.596 86.0099 160.751 85.9356 160.914 85.8856C161.238 85.784 161.583 85.77 161.914 85.8449L161.922 85.8468C161.936 85.8505 161.951 85.8514 161.965 85.8494C161.979 85.8474 161.993 85.8426 162.005 85.8353C162.017 85.8279 162.028 85.8182 162.037 85.8066C162.045 85.7951 162.051 85.7819 162.055 85.768C162.058 85.754 162.059 85.7395 162.056 85.7254C162.054 85.7112 162.049 85.6976 162.041 85.6854C162.034 85.6733 162.024 85.6627 162.012 85.6545C162 85.6462 161.987 85.6403 161.973 85.6373L161.969 85.6361Z" fill="#0C0C0C"/>
<path d="M155.637 87.9699C157.834 87.1522 158.563 85.6349 158.787 84.5057C158.933 83.7526 158.919 82.9776 158.747 82.2301L158.679 82.2489C158.848 82.9866 158.861 83.7516 158.718 84.4946C158.496 85.605 157.778 87.0981 155.612 87.9039L155.637 87.9699Z" fill="#0C0C0C"/>
<path d="M183.415 98.3838L184.731 93.9205C184.759 93.8224 184.808 93.7315 184.874 93.6534C184.94 93.5753 185.022 93.5118 185.114 93.467C185.206 93.4221 185.306 93.3969 185.408 93.3929C185.51 93.3888 185.612 93.4061 185.707 93.4436C185.88 93.5183 186.02 93.6548 186.098 93.8265C186.177 93.9982 186.189 94.1929 186.132 94.3729L185.85 95.3299L188.118 92.7276C188.365 92.4337 188.856 92.2313 189.167 92.5303C189.294 92.6375 189.382 92.7846 189.414 92.9477C189.447 93.1108 189.424 93.2802 189.348 93.4284C189.351 93.4299 189.355 93.4319 189.358 93.4342C189.36 93.4363 189.361 93.4386 189.363 93.441L189.744 92.9879C189.814 92.9041 189.903 92.837 190.003 92.7917C190.102 92.7464 190.211 92.7239 190.321 92.7258C190.43 92.7278 190.538 92.7542 190.636 92.8032C190.734 92.8521 190.82 92.9222 190.888 93.0086C190.991 93.1467 191.044 93.3162 191.038 93.4887C191.032 93.6612 190.966 93.8264 190.853 93.9564L190.691 94.1493C190.694 94.1566 190.696 94.1646 190.697 94.1728C190.837 94.068 191.009 94.0164 191.183 94.0271C191.358 94.0378 191.522 94.1102 191.648 94.2313C191.782 94.3678 191.86 94.5497 191.865 94.7409C191.871 94.932 191.804 95.1182 191.679 95.2623L191.276 95.741C191.286 95.7382 191.297 95.7379 191.308 95.7402C191.318 95.7425 191.328 95.7473 191.337 95.7542C191.346 95.763 191.353 95.7743 191.356 95.7868C191.507 95.7282 191.672 95.7207 191.828 95.7655C191.983 95.8103 192.119 95.9049 192.215 96.0347C192.314 96.1728 192.362 96.3401 192.354 96.5095C192.345 96.6789 192.28 96.8404 192.168 96.968L188.77 101.008C188.295 101.573 187.662 101.984 186.952 102.187C186.242 102.389 185.487 102.376 184.785 102.147C184.18 101.95 183.675 101.524 183.379 100.961C183.082 100.397 183.017 99.7406 183.197 99.1298L183.415 98.3838Z" fill="#FFCAB6"/>
<g opacity="0.2">
<path d="M187.115 96.0163C187.129 96.0273 187.146 96.0327 187.164 96.0312C187.181 96.0298 187.198 96.0217 187.209 96.0086L189.362 93.531C189.374 93.5174 189.38 93.4996 189.379 93.4816C189.378 93.4637 189.369 93.4469 189.356 93.4351C189.342 93.4233 189.324 93.4174 189.306 93.4187C189.288 93.42 189.272 93.4283 189.26 93.4419L187.107 95.9193C187.101 95.926 187.096 95.9339 187.093 95.9423C187.091 95.9508 187.089 95.9597 187.09 95.9686C187.091 95.9775 187.093 95.9862 187.097 95.9942C187.101 96.0022 187.107 96.0093 187.113 96.0151L187.115 96.0163Z" fill="#0C0C0C"/>
</g>
<g opacity="0.2">
<path d="M188.182 96.996C188.195 97.0071 188.213 97.0125 188.23 97.0111C188.248 97.0096 188.264 97.0014 188.276 96.9882L190.679 94.2233C190.684 94.2166 190.689 94.2088 190.692 94.2003C190.695 94.1918 190.696 94.1829 190.695 94.174C190.694 94.1651 190.692 94.1564 190.688 94.1484C190.684 94.1404 190.678 94.1333 190.672 94.1275C190.658 94.1163 190.64 94.1108 190.622 94.112C190.605 94.1133 190.588 94.1212 190.576 94.1343L188.175 96.8992C188.169 96.9059 188.164 96.9137 188.162 96.9222C188.159 96.9307 188.158 96.9396 188.158 96.9485C188.159 96.9574 188.161 96.9661 188.165 96.9741C188.169 96.9821 188.175 96.9892 188.181 96.995L188.182 96.996Z" fill="#0C0C0C"/>
</g>
<g opacity="0.2">
<path d="M189.331 98.0639C189.344 98.075 189.362 98.0804 189.379 98.079C189.397 98.0775 189.413 98.0694 189.425 98.0561L191.341 95.8508C191.352 95.8371 191.357 95.8197 191.355 95.8024C191.354 95.7851 191.345 95.769 191.332 95.7576C191.319 95.7462 191.302 95.7402 191.285 95.741C191.267 95.7417 191.251 95.7491 191.239 95.7615L189.322 97.9671C189.316 97.9739 189.312 97.9817 189.309 97.9901C189.306 97.9986 189.305 98.0075 189.305 98.0164C189.306 98.0254 189.308 98.034 189.312 98.042C189.316 98.05 189.322 98.0571 189.329 98.063L189.331 98.0639Z" fill="#0C0C0C"/>
</g>
<path d="M191.421 100.332L186.335 123.405C186.323 123.457 186.312 123.511 186.298 123.562C185.155 124.758 183.918 125.858 182.598 126.853C182.332 127.051 182.067 127.246 181.794 127.434C181.626 127.452 181.457 127.462 181.287 127.462C180.381 127.462 179.49 127.223 178.705 126.77C177.92 126.317 177.268 125.665 176.814 124.88L167.122 108.109L176.072 102.939L179.105 108.187L181.327 98.1068L191.421 100.332Z" fill="#267E66"/>
<path d="M175.769 110.851C175.738 111.218 175.677 111.871 175.593 112.731C175.17 117.126 174.181 126.921 173.723 131.448C167.936 133.298 161.726 133.361 155.903 131.629H155.9C151.6 130.342 147.642 128.107 144.319 125.089C144.338 121.042 144.279 116.489 144.007 113.562C143.192 104.816 143.962 103.447 145.228 102.181C145.332 102.077 145.44 101.976 145.548 101.878C146.856 100.689 148.498 99.914 150.892 99.5896C152.475 99.376 154.857 99.221 154.857 99.221C154.857 99.221 155.059 103.303 159.868 103.529C166.415 103.837 165.978 99.221 166.011 99.221C167.657 99.221 171.322 99.3243 173.634 100.501C173.636 100.501 173.636 100.501 173.638 100.504C174.104 100.73 174.527 101.034 174.89 101.403C177.538 104.208 176.232 105.408 175.769 110.851Z" fill="#267E66"/>
<path d="M165.495 91.0245C164.55 91.5048 163.473 91.6568 162.432 91.4563C162.396 91.4495 162.359 91.453 162.325 91.4666C162.291 91.4802 162.261 91.5031 162.24 91.5329C162.218 91.5626 162.206 91.5978 162.203 91.6344C162.201 91.671 162.209 91.7075 162.227 91.7396C162.538 92.2862 163.273 93.2209 164.536 92.8401C165.351 92.5942 165.659 91.7556 165.773 91.2366C165.781 91.2007 165.779 91.1633 165.766 91.1288C165.753 91.0943 165.731 91.0641 165.702 91.0419C165.673 91.0196 165.638 91.0061 165.601 91.003C165.564 91 165.528 91.0074 165.495 91.0245Z" fill="white"/>
<path d="M165.554 86.8229C165.806 86.8229 166.011 86.6185 166.011 86.3664C166.011 86.1144 165.806 85.91 165.554 85.91C165.302 85.91 165.098 86.1144 165.098 86.3664C165.098 86.6185 165.302 86.8229 165.554 86.8229Z" fill="#0C0C0C"/>
<path d="M161.168 87.5909C161.42 87.5909 161.624 87.3865 161.624 87.1344C161.624 86.8824 161.42 86.678 161.168 86.678C160.916 86.678 160.711 86.8824 160.711 87.1344C160.711 87.3865 160.916 87.5909 161.168 87.5909Z" fill="#0C0C0C"/>
<path d="M174.76 120.705C174.757 120.705 174.754 120.705 174.751 120.705C174.732 120.702 174.715 120.692 174.704 120.677C174.693 120.662 174.688 120.644 174.691 120.625L175.497 112.495C175.499 112.486 175.501 112.477 175.506 112.469C175.511 112.461 175.517 112.454 175.524 112.448C175.532 112.443 175.54 112.438 175.549 112.436C175.558 112.434 175.568 112.434 175.577 112.435C175.596 112.438 175.612 112.447 175.624 112.462C175.635 112.477 175.64 112.496 175.637 112.514L174.83 120.644C174.828 120.661 174.819 120.677 174.806 120.688C174.793 120.699 174.777 120.705 174.76 120.705Z" fill="#0C0C0C"/>
<path d="M169.875 120.313L174.286 118.343C174.383 118.3 174.487 118.278 174.593 118.277C174.699 118.277 174.804 118.299 174.902 118.341C174.999 118.383 175.086 118.445 175.158 118.523C175.23 118.601 175.285 118.693 175.319 118.793C175.377 118.98 175.364 119.182 175.281 119.36C175.199 119.538 175.053 119.678 174.873 119.755L173.927 120.178L177.511 120.215C177.91 120.212 178.4 120.463 178.374 120.911C178.375 121.083 178.318 121.251 178.211 121.387C178.104 121.523 177.955 121.619 177.787 121.659C177.788 121.663 177.788 121.666 177.788 121.67C177.788 121.673 177.788 121.676 177.787 121.679L178.401 121.675C178.515 121.674 178.627 121.699 178.73 121.747C178.833 121.795 178.924 121.865 178.997 121.953C179.069 122.041 179.121 122.144 179.148 122.254C179.176 122.364 179.179 122.479 179.156 122.591C179.117 122.766 179.019 122.922 178.878 123.033C178.737 123.144 178.563 123.204 178.384 123.202L178.122 123.204C178.119 123.211 178.114 123.218 178.108 123.224C178.285 123.264 178.442 123.365 178.551 123.51C178.66 123.655 178.714 123.834 178.704 124.015C178.686 124.213 178.595 124.396 178.447 124.53C178.3 124.663 178.108 124.736 177.91 124.734L177.26 124.738C177.269 124.745 177.277 124.753 177.282 124.763C177.288 124.773 177.29 124.784 177.29 124.795C177.29 124.809 177.286 124.821 177.278 124.832C177.426 124.912 177.544 125.037 177.613 125.19C177.683 125.343 177.7 125.514 177.663 125.678C177.62 125.849 177.521 126 177.381 126.108C177.242 126.215 177.07 126.273 176.894 126.271L171.414 126.31C170.647 126.315 169.896 126.092 169.258 125.667C168.619 125.243 168.121 124.638 167.829 123.93C167.576 123.319 167.572 122.633 167.817 122.019C168.062 121.405 168.537 120.911 169.141 120.641L169.875 120.313Z" fill="#FFCAB6"/>
<g opacity="0.2">
<path d="M174.239 121.64C174.239 121.659 174.247 121.676 174.26 121.69C174.273 121.703 174.291 121.71 174.31 121.71L177.718 121.741C177.736 121.741 177.754 121.734 177.768 121.721C177.781 121.708 177.789 121.69 177.789 121.671C177.789 121.653 177.782 121.635 177.769 121.621C177.755 121.608 177.738 121.6 177.719 121.6L174.31 121.569C174.292 121.569 174.274 121.577 174.261 121.59C174.247 121.603 174.24 121.621 174.24 121.64H174.239Z" fill="#0C0C0C"/>
</g>
<g opacity="0.2">
<path d="M174.184 123.143C174.184 123.162 174.192 123.18 174.205 123.193C174.218 123.206 174.236 123.214 174.255 123.214L178.058 123.248C178.077 123.248 178.095 123.241 178.108 123.227C178.121 123.214 178.128 123.196 178.128 123.178C178.128 123.159 178.12 123.141 178.107 123.128C178.094 123.115 178.077 123.108 178.058 123.107L174.255 123.073C174.236 123.073 174.218 123.08 174.205 123.093C174.192 123.107 174.184 123.125 174.184 123.143H174.184Z" fill="#0C0C0C"/>
</g>
<g opacity="0.2">
<path d="M174.115 124.769C174.115 124.788 174.123 124.806 174.136 124.819C174.149 124.833 174.167 124.84 174.186 124.84L177.22 124.867C177.238 124.867 177.256 124.86 177.269 124.847C177.283 124.834 177.29 124.816 177.29 124.797C177.29 124.778 177.283 124.76 177.269 124.747C177.256 124.734 177.238 124.726 177.22 124.726L174.186 124.699C174.167 124.699 174.149 124.707 174.136 124.72C174.123 124.733 174.115 124.751 174.115 124.77V124.769Z" fill="#0C0C0C"/>
</g>
<path d="M171.139 128.167L155.903 131.629H155.9C151.6 130.342 147.643 128.107 144.319 125.089C143.962 124.765 143.613 124.433 143.272 124.093C142.677 123.499 142.107 122.881 141.564 122.24L143.697 105.082C143.93 103.699 144.702 102.465 145.845 101.651C146.987 100.838 148.406 100.512 149.789 100.744C151.172 100.977 152.406 101.75 153.22 102.892C154.033 104.035 154.36 105.454 154.127 106.837L152.778 122.947L169.767 119.101L171.139 128.167Z" fill="#267E66"/>
<path d="M149.342 123.58C149.333 123.58 149.323 123.579 149.314 123.576C149.306 123.573 149.298 123.569 149.29 123.563C149.283 123.557 149.278 123.549 149.273 123.541C149.269 123.533 149.267 123.524 149.266 123.514C149.265 123.505 149.267 123.496 149.269 123.487C149.272 123.478 149.277 123.47 149.283 123.463C149.289 123.456 149.296 123.45 149.305 123.446C149.313 123.442 149.322 123.439 149.331 123.439L152.737 122.71C152.747 122.709 152.756 122.709 152.765 122.712C152.774 122.714 152.782 122.718 152.79 122.723C152.797 122.729 152.804 122.736 152.808 122.744C152.813 122.752 152.816 122.76 152.818 122.77C152.819 122.779 152.819 122.788 152.816 122.797C152.814 122.806 152.81 122.815 152.805 122.822C152.799 122.829 152.792 122.836 152.784 122.841C152.776 122.845 152.768 122.848 152.758 122.85L149.351 123.578C149.348 123.579 149.345 123.579 149.342 123.58Z" fill="#0C0C0C"/>
<path d="M171.139 128.167C171.143 128.185 171.14 128.203 171.13 128.219C171.12 128.235 171.105 128.246 171.087 128.251L156.286 131.739C156.192 131.713 156.1 131.688 156.008 131.659L170.984 128.134L169.65 119.207L152.762 122.85C152.751 122.852 152.74 122.851 152.729 122.848C152.719 122.845 152.709 122.839 152.701 122.832C152.694 122.823 152.689 122.814 152.685 122.803C152.682 122.793 152.681 122.782 152.682 122.771L153.629 113.565C153.63 113.555 153.634 113.547 153.639 113.539C153.644 113.531 153.651 113.524 153.658 113.519C153.666 113.514 153.674 113.51 153.683 113.508C153.693 113.506 153.702 113.506 153.711 113.508C153.729 113.511 153.746 113.521 153.757 113.536C153.768 113.551 153.773 113.57 153.77 113.588L152.837 122.7L169.68 119.05C169.689 119.047 169.699 119.047 169.708 119.048C169.718 119.05 169.726 119.054 169.734 119.059C169.742 119.063 169.749 119.069 169.755 119.077C169.761 119.084 169.765 119.092 169.767 119.101L171.139 128.167Z" fill="#0C0C0C"/>
<path d="M56.5957 167.559C71.8365 167.559 84.1915 155.204 84.1915 139.963C84.1915 124.722 71.8365 112.367 56.5957 112.367C41.355 112.367 29 124.722 29 139.963C29 155.204 41.355 167.559 56.5957 167.559Z" fill="white"/>
<path opacity="0.09" d="M56.5957 167.559C71.8365 167.559 84.1915 155.204 84.1915 139.963C84.1915 124.722 71.8365 112.367 56.5957 112.367C41.355 112.367 29 124.722 29 139.963C29 155.204 41.355 167.559 56.5957 167.559Z" fill="#2C4981"/>
<path d="M48.9964 124.311C48.9964 124.311 49.2954 132.622 54.8428 133.004L55.7824 122.044L48.9964 124.311Z" fill="#0A0A0A"/>
<path d="M50.0648 134.702C51.8798 134.702 53.3512 133.231 53.3512 131.416C53.3512 129.601 51.8798 128.129 50.0648 128.129C48.2498 128.129 46.7784 129.601 46.7784 131.416C46.7784 133.231 48.2498 134.702 50.0648 134.702Z" fill="#0A0A0A"/>
<path d="M62.9236 136.862C62.8942 136.858 62.5696 142.247 56.3088 141.777C51.9745 141.453 50.4292 136.855 50.3301 136.855C50.8254 136.772 51.314 136.654 51.7919 136.5C52.4743 136.134 53.3188 135.752 53.5387 134.427C53.6656 133.663 53.4506 129.755 53.5166 128.982L60.1697 130.467C60.0758 132.099 59.426 135.883 61.7065 136.553C62.0857 136.664 62.4944 136.766 62.9236 136.862Z" fill="#FFCAB6"/>
<path opacity="0.5" d="M60.2626 135.006C60.1583 134.67 60.0912 134.323 60.0625 133.972C59.9894 133.173 60.004 132.367 60.1059 131.571C58.7537 131.388 57.4798 130.83 56.4289 129.96C56.3053 130.416 55.626 132.41 55.8141 132.843C56.1698 133.664 57.8407 135.006 60.2626 135.006Z" fill="#0C0C0C"/>
<path d="M59.2203 133.554C56.5854 133.588 53.2912 132.258 52.883 128.718L52.5146 125.524C52.1061 121.984 53.6342 118.899 56.9671 118.516C60.2997 118.131 63.1217 120.713 63.5302 124.253L63.6932 125.667C63.8499 127.026 63.9218 133.494 59.2203 133.554Z" fill="#FFCAB6"/>
<path d="M62.7381 125.572C62.9663 125.572 63.1513 125.387 63.1513 125.159C63.1513 124.931 62.9663 124.746 62.7381 124.746C62.5099 124.746 62.3249 124.931 62.3249 125.159C62.3249 125.387 62.5099 125.572 62.7381 125.572Z" fill="#0C0C0C"/>
<path d="M58.5147 126.055C58.7429 126.055 58.9279 125.87 58.9279 125.642C58.9279 125.414 58.7429 125.229 58.5147 125.229C58.2865 125.229 58.1015 125.414 58.1015 125.642C58.1015 125.87 58.2865 126.055 58.5147 126.055Z" fill="#0C0C0C"/>
<path opacity="0.5" d="M60.6105 128.788H60.6171C60.7521 128.771 60.8861 128.747 61.0186 128.716C61.2163 128.668 61.4771 128.583 61.4567 128.406C61.4332 128.204 60.63 126.092 60.5384 125.852C60.5344 125.841 60.5285 125.832 60.5208 125.824C60.5132 125.816 60.504 125.809 60.4939 125.805C60.4838 125.8 60.4728 125.798 60.4617 125.797C60.4506 125.797 60.4396 125.799 60.4292 125.803C60.4188 125.807 60.4093 125.813 60.4012 125.821C60.3931 125.828 60.3867 125.837 60.3821 125.847C60.3776 125.858 60.3751 125.869 60.3748 125.88C60.3745 125.891 60.3763 125.902 60.3803 125.912C60.723 126.812 61.273 128.29 61.2885 128.426C61.077 128.545 60.8401 128.611 60.5976 128.62C60.5752 128.621 60.5545 128.632 60.5399 128.649C60.5253 128.666 60.518 128.688 60.5197 128.711C60.5214 128.733 60.532 128.754 60.549 128.768C60.566 128.783 60.5882 128.79 60.6105 128.788V128.788Z" fill="#0C0C0C"/>
<path opacity="0.5" d="M60.0149 130.261C60.5562 130.23 61.0827 130.072 61.5519 129.801C61.5704 129.789 61.5838 129.771 61.5893 129.75C61.5947 129.729 61.5919 129.707 61.5814 129.687C61.5709 129.668 61.5534 129.654 61.5327 129.648C61.5119 129.641 61.4895 129.643 61.4699 129.652C60.4565 130.213 59.4873 130.246 58.6675 129.746C58.6509 129.736 58.6338 129.726 58.6163 129.717C58.5959 129.709 58.5734 129.71 58.5532 129.718C58.533 129.726 58.5169 129.742 58.508 129.762C58.4991 129.782 58.4983 129.804 58.5056 129.825C58.513 129.845 58.5279 129.862 58.5474 129.872C58.5538 129.875 58.5646 129.882 58.5794 129.891C59.0104 130.154 59.5103 130.283 60.0149 130.261Z" fill="#0C0C0C"/>
<path d="M49.805 126.432L52.7914 126.105C55.0885 125.363 56.043 121.547 56.043 121.547C56.043 121.547 58.1015 123.888 64.2016 122.819C64.2016 122.819 63.9653 114.955 54.6878 116.062C51.4575 116.448 49.0218 119.688 48.9966 123.923C48.9793 126.891 49.805 126.432 49.805 126.432Z" fill="#0A0A0A"/>
<path d="M53.2145 129.773C52.2016 129.89 51.2556 128.901 51.1388 127.888C51.0221 126.875 51.7785 126.222 52.7914 126.105L53.3916 126.724L54.0853 129.672L53.2145 129.773Z" fill="#FFCAB6"/>
<path d="M61.2767 124.128C61.5755 123.962 61.9131 123.88 62.2544 123.89C62.423 123.894 62.59 123.923 62.7499 123.976C62.9087 124.029 63.0603 124.101 63.2011 124.191C63.2152 124.2 63.2253 124.214 63.2293 124.23C63.2333 124.246 63.2309 124.263 63.2225 124.278C63.2142 124.292 63.2006 124.303 63.1846 124.308C63.1686 124.312 63.1513 124.311 63.1365 124.303L63.1323 124.301C62.9989 124.221 62.856 124.159 62.7071 124.116C62.5596 124.072 62.4063 124.05 62.2523 124.052C61.946 124.054 61.6456 124.136 61.3815 124.292L61.3752 124.296C61.3642 124.303 61.352 124.308 61.3392 124.31C61.3263 124.312 61.3131 124.312 61.3004 124.309C61.2877 124.306 61.2756 124.301 61.265 124.293C61.2544 124.286 61.2454 124.276 61.2387 124.265C61.2319 124.254 61.2274 124.241 61.2255 124.228C61.2236 124.215 61.2244 124.202 61.2277 124.19C61.231 124.177 61.2368 124.165 61.2448 124.155C61.2528 124.144 61.2628 124.136 61.2742 124.129L61.2767 124.128Z" fill="#0C0C0C"/>
<path d="M58.6002 124.62C58.3082 124.528 57.9968 124.514 57.6979 124.581C57.5474 124.614 57.4027 124.67 57.2688 124.746C57.1334 124.822 57.0081 124.914 56.8957 125.021L56.8922 125.024C56.8794 125.034 56.8636 125.038 56.8478 125.037C56.832 125.035 56.8172 125.028 56.8063 125.016C56.7955 125.005 56.7892 124.99 56.7888 124.974C56.7884 124.958 56.7939 124.942 56.8041 124.93C56.9212 124.811 57.0529 124.707 57.1959 124.62C57.3399 124.533 57.4962 124.467 57.6597 124.426C57.9902 124.34 58.3376 124.345 58.6658 124.439C58.6785 124.442 58.6904 124.448 58.7008 124.456C58.7112 124.464 58.7198 124.474 58.7263 124.485C58.7327 124.497 58.7368 124.509 58.7383 124.522C58.7398 124.535 58.7386 124.548 58.7349 124.561C58.7312 124.574 58.7249 124.585 58.7166 124.595C58.7082 124.605 58.6979 124.614 58.6863 124.62C58.6747 124.626 58.662 124.629 58.6489 124.63C58.6358 124.631 58.6227 124.63 58.6103 124.625H58.6078L58.6002 124.62Z" fill="#0C0C0C"/>
<path opacity="0.52" d="M60.0715 131.061C60.1694 131.057 60.2669 131.045 60.3627 131.024C60.3841 131.019 60.4025 131.006 60.4142 130.987C60.4258 130.968 60.4298 130.946 60.4253 130.924C60.4208 130.903 60.408 130.884 60.3899 130.872C60.3717 130.859 60.3494 130.855 60.3277 130.858C60.178 130.902 60.0207 130.913 59.8663 130.892C59.7118 130.87 59.5639 130.815 59.4323 130.731C59.4149 130.717 59.3926 130.71 59.3702 130.713C59.3479 130.715 59.3274 130.726 59.3132 130.743C59.299 130.761 59.2922 130.783 59.2945 130.805C59.2967 130.828 59.3078 130.848 59.3251 130.862C59.5435 131.013 59.8072 131.083 60.0715 131.061Z" fill="#0C0C0C"/>
<path opacity="0.1" d="M57.9425 128.853C58.3769 128.838 58.7201 128.567 58.709 128.249C58.6978 127.93 58.3365 127.684 57.9021 127.699C57.4676 127.714 57.1244 127.985 57.1356 128.304C57.1467 128.622 57.508 128.868 57.9425 128.853Z" fill="#0C0C0C"/>
<path opacity="0.1" d="M62.5923 127.973C62.6045 128.292 62.9655 128.537 63.4001 128.523C63.4752 128.52 63.5499 128.51 63.6228 128.492C63.6743 128.118 63.7057 127.756 63.7229 127.421C63.6059 127.381 63.4825 127.363 63.359 127.369C62.9254 127.383 62.5824 127.653 62.5923 127.973Z" fill="#0C0C0C"/>
<path d="M72.2739 142.538C72.2551 144.42 71.6091 146.663 71.3789 149.374C71.3178 150.097 69.7648 152.191 69.5393 154.518C69.255 157.483 69.8872 162.106 69.9717 164.105C65.6067 166.52 60.6689 167.709 55.6829 167.543C50.6969 167.378 45.8488 165.865 41.6534 163.165C41.5407 158.03 41.4068 151.69 41.2353 150.17C40.6785 145.153 40.8289 141.979 41.6323 140.494C42.9454 138.07 45.2828 137.33 47.7282 136.997C49.2222 136.795 51.4656 136.651 51.4656 136.651C51.4656 136.651 51.6559 140.497 56.1896 140.71C62.3607 141.002 61.9496 136.651 61.9801 136.651C64.2188 136.651 68.4613 137.187 70.0869 138.296C71.8111 139.468 72.295 140.858 72.2739 142.538Z" fill="#DFA41E"/>
<path d="M50.9534 145.465L42.5812 163.735C39.3667 161.838 36.5699 159.309 34.3594 156.301L41.3432 141.06L50.9534 145.465Z" fill="#DFA41E"/>
<path d="M79.037 156.024C77.3968 158.312 75.4173 160.337 73.1666 162.028C72.4258 162.588 71.6566 163.108 70.8621 163.588L62.2691 144.697L71.891 140.318L79.037 156.024Z" fill="#DFA41E"/>
<path d="M114.027 59.4633C129.895 59.4633 142.758 46.5998 142.758 30.7318C142.758 14.8638 129.895 2.00024 114.027 2.00024C98.1588 2.00024 85.2953 14.8638 85.2953 30.7318C85.2953 46.5998 98.1588 59.4633 114.027 59.4633Z" fill="white"/>
<path opacity="0.09" d="M114.027 59.4633C129.895 59.4633 142.758 46.5998 142.758 30.7318C142.758 14.8638 129.895 2.00024 114.027 2.00024C98.1588 2.00024 85.2953 14.8638 85.2953 30.7318C85.2953 46.5998 98.1588 59.4633 114.027 59.4633Z" fill="#2C4981"/>
<path d="M119.583 13.5267C119.583 13.5267 121.402 11.5549 121.261 7.79915C121.153 4.89121 118.87 7.20107 118.87 7.20107C118.87 7.20107 118.771 5.10803 117.32 5.5802C115.868 6.05237 115.422 8.35072 115.422 8.35072" fill="#0C0C0C"/>
<path d="M109.665 7.21271C109.665 7.21271 102.42 9.34216 106.903 18.8715L107.565 18.7968L108.908 18.6455" fill="#0C0C0C"/>
<path d="M119.934 28.7563C119.901 28.7521 119.534 34.8311 112.472 34.3002C107.583 33.934 105.84 28.7469 105.728 28.7469C106.255 28.6349 106.907 28.465 107.165 28.4065C107.73 28.2756 108.241 27.976 108.631 27.5475C109.02 27.119 109.27 26.582 109.348 26.0079C109.491 25.1462 109.248 20.7379 109.323 19.8662L116.827 21.5411C116.722 23.3825 115.988 27.6511 118.561 28.4065C118.989 28.5318 119.45 28.6469 119.934 28.7563Z" fill="#FFCAB6"/>
<path opacity="0.52" d="M116.932 26.6624C116.815 26.2835 116.739 25.893 116.707 25.4977C116.624 24.5956 116.641 23.6872 116.756 22.7887C115.23 22.5828 113.794 21.9532 112.608 20.9715C112.469 21.4862 111.702 23.7349 111.915 24.224C112.316 25.1486 114.2 26.6624 116.932 26.6624Z" fill="#0C0C0C"/>
<path d="M115.707 24.7269C112.748 24.9931 108.927 23.7835 108.161 19.838L107.469 16.2779C106.703 12.3314 108.155 8.73145 111.869 8.01028C115.584 7.28887 118.982 9.94828 119.748 13.8938L120.054 15.4698C120.149 16.0128 120.208 16.5616 120.229 17.1126C120.295 18.569 120.39 20.7825 119.69 22.4189C119.03 23.9642 117.599 24.5571 115.707 24.7269Z" fill="#FFCAB6"/>
<path opacity="0.5" d="M116.155 20.8262C116.697 20.816 117.229 20.6786 117.708 20.425C117.719 20.4203 117.728 20.4135 117.736 20.4051C117.744 20.3967 117.75 20.3867 117.753 20.376C117.757 20.3652 117.759 20.3537 117.758 20.3423C117.757 20.3309 117.754 20.3198 117.749 20.3095C117.744 20.2993 117.737 20.2903 117.728 20.2829C117.719 20.2755 117.709 20.27 117.698 20.2667C117.687 20.2633 117.676 20.2622 117.664 20.2634C117.653 20.2646 117.642 20.2681 117.632 20.2737C116.598 20.7955 115.629 20.7905 114.828 20.261C114.812 20.2498 114.795 20.2395 114.778 20.23C114.768 20.2251 114.757 20.2222 114.746 20.2215C114.735 20.2208 114.724 20.2223 114.713 20.2259C114.703 20.2295 114.693 20.2351 114.685 20.2424C114.677 20.2498 114.67 20.2587 114.665 20.2687C114.66 20.2786 114.657 20.2895 114.656 20.3006C114.656 20.3117 114.657 20.3228 114.661 20.3333C114.664 20.3439 114.67 20.3536 114.677 20.3619C114.685 20.3703 114.693 20.3771 114.703 20.382C114.71 20.3855 114.72 20.3926 114.735 20.4022C115.155 20.6818 115.65 20.8294 116.155 20.8262Z" fill="#0C0C0C"/>
<path opacity="0.52" d="M116.181 21.6289C116.279 21.6287 116.377 21.62 116.473 21.6031C116.484 21.6012 116.495 21.5972 116.504 21.5913C116.514 21.5854 116.522 21.5777 116.528 21.5686C116.535 21.5596 116.539 21.5493 116.542 21.5385C116.544 21.5277 116.544 21.5164 116.543 21.5055C116.541 21.4945 116.537 21.4841 116.531 21.4747C116.525 21.4653 116.517 21.4571 116.508 21.4507C116.499 21.4443 116.489 21.4397 116.478 21.4372C116.467 21.4348 116.456 21.4344 116.445 21.4363C116.294 21.4742 116.136 21.4794 115.983 21.4517C115.829 21.4239 115.683 21.3637 115.555 21.2752C115.538 21.2609 115.516 21.2538 115.494 21.2554C115.472 21.257 115.452 21.2672 115.437 21.2838C115.422 21.3004 115.415 21.3221 115.416 21.3442C115.417 21.3663 115.427 21.387 115.443 21.402C115.655 21.5607 115.916 21.6409 116.181 21.6289Z" fill="#0C0C0C"/>
<path d="M118.859 16.464C119.117 16.464 119.325 16.2553 119.325 15.9979C119.325 15.7405 119.117 15.5318 118.859 15.5318C118.602 15.5318 118.393 15.7405 118.393 15.9979C118.393 16.2553 118.602 16.464 118.859 16.464Z" fill="#0C0C0C"/>
<path d="M114.327 16.9937C114.585 16.9937 114.793 16.785 114.793 16.5276C114.793 16.2702 114.585 16.0616 114.327 16.0616C114.07 16.0616 113.861 16.2702 113.861 16.5276C113.861 16.785 114.07 16.9937 114.327 16.9937Z" fill="#0C0C0C"/>
<path d="M108.625 20.9951C107.496 21.2143 106.346 20.1842 106.127 19.0552C105.907 17.9263 106.702 17.1262 107.831 16.907L108.559 17.5504L109.595 20.8067L108.625 20.9951Z" fill="#FFCAB6"/>
<path d="M109.421 18.973C109.421 18.973 108.791 13.3081 110.425 12.6556C111.513 12.2207 114.544 13.3276 116.995 12.3842C118.067 11.9713 119.171 12.0554 119.373 12.5607C119.453 12.7606 119.605 9.65059 117.456 7.70014C115.745 6.14739 111.122 6.45817 109.167 7.42271C103.755 10.0934 107.642 17.1949 107.642 17.1949L108.246 19.078L109.421 18.973Z" fill="#0C0C0C"/>
<g opacity="0.52">
<path d="M116.85 19.4232H116.857C117.221 19.3527 117.824 19.196 117.773 18.9238C117.73 18.698 116.646 16.3809 116.523 16.1175C116.517 16.1063 116.51 16.0962 116.501 16.0879C116.492 16.0796 116.481 16.0731 116.469 16.0689C116.458 16.0647 116.445 16.0628 116.433 16.0634C116.42 16.0639 116.408 16.0669 116.397 16.0722C116.386 16.0774 116.376 16.0849 116.368 16.094C116.359 16.1032 116.353 16.1139 116.348 16.1255C116.344 16.1372 116.342 16.1495 116.343 16.1619C116.344 16.1743 116.347 16.1864 116.352 16.1976C116.832 17.2237 117.558 18.8051 117.588 18.959C117.564 19.0295 117.2 19.1655 116.823 19.2376C116.798 19.2413 116.776 19.2548 116.761 19.275C116.746 19.2952 116.739 19.3206 116.743 19.3455C116.747 19.3705 116.76 19.3929 116.78 19.4079C116.801 19.4229 116.826 19.4292 116.851 19.4255L116.85 19.4232Z" fill="#0C0C0C"/>
</g>
<path d="M117.107 13.7454C117.472 13.5708 117.876 13.4977 118.279 13.534C118.476 13.5506 118.67 13.5967 118.853 13.6707C119.035 13.7428 119.206 13.8375 119.364 13.9526C119.393 13.9728 119.414 14.0037 119.421 14.0385C119.428 14.0734 119.421 14.1097 119.402 14.1397C119.383 14.1697 119.352 14.191 119.318 14.1993C119.283 14.2076 119.247 14.2021 119.216 14.184L119.206 14.1802C119.063 14.0889 118.909 14.0159 118.747 13.9629C118.589 13.91 118.423 13.8814 118.256 13.8781C117.927 13.869 117.601 13.947 117.311 14.1044L117.299 14.1112C117.276 14.1246 117.25 14.1333 117.223 14.1367C117.196 14.1401 117.169 14.1382 117.143 14.1311C117.117 14.1239 117.092 14.1117 117.071 14.0951C117.049 14.0785 117.031 14.0578 117.018 14.0342C117.004 14.0107 116.996 13.9847 116.992 13.9578C116.989 13.9309 116.991 13.9036 116.998 13.8774C117.005 13.8512 117.017 13.8267 117.034 13.8053C117.05 13.7839 117.071 13.7659 117.095 13.7525L117.107 13.7454Z" fill="#0C0C0C"/>
<path d="M114.435 14.4675C114.118 14.3788 113.783 14.3753 113.464 14.4574C113.302 14.4978 113.147 14.5625 113.004 14.6494C112.858 14.7368 112.724 14.8422 112.605 14.963L112.597 14.9705C112.571 14.9954 112.537 15.0093 112.501 15.0092C112.465 15.0091 112.431 14.995 112.405 14.9699C112.38 14.9448 112.365 14.9107 112.364 14.8749C112.363 14.839 112.377 14.8043 112.401 14.7781C112.529 14.6305 112.675 14.4997 112.836 14.3889C112.999 14.2758 113.177 14.1876 113.366 14.1274C113.555 14.0652 113.751 14.0291 113.95 14.0203C114.153 14.0091 114.357 14.0268 114.555 14.0729C114.608 14.0854 114.654 14.1185 114.683 14.165C114.712 14.2115 114.721 14.2676 114.709 14.321C114.697 14.3743 114.663 14.4205 114.617 14.4494C114.57 14.4783 114.514 14.4875 114.461 14.4751L114.449 14.4718L114.435 14.4675Z" fill="#0C0C0C"/>
<path d="M115.864 9.99247C116.67 9.66589 116.934 8.43958 116.453 7.25343C115.972 6.06728 114.929 5.37046 114.124 5.69704C113.318 6.02362 113.054 7.24992 113.535 8.43607C114.016 9.62222 115.059 10.319 115.864 9.99247Z" fill="#0C0C0C"/>
<path d="M129.694 35.0381C129.722 36.9855 128.961 39.1749 128.707 42.1394C128.656 42.7408 128.534 44.0657 128.372 45.7923C128.106 48.6511 127.73 52.6046 127.401 56.1682C122.698 58.6368 117.403 59.7551 112.104 59.3994C106.804 59.0436 101.706 57.2277 97.3752 54.1527C97.2719 54.0752 97.1685 54 97.0652 53.9272C96.7903 49.8985 96.4661 45.6701 96.1701 42.9992C95.6134 38.0121 94.8547 35.5291 95.2798 33.8518C95.3139 33.709 95.3595 33.5692 95.4161 33.4337C96.64 30.4644 100.537 29.1395 103.177 28.7825C104.789 28.564 107.213 28.4066 107.213 28.4066C107.213 28.4066 107.418 32.5598 112.311 32.79C118.973 33.1048 118.529 28.4066 118.562 28.4066C119.64 28.4066 125.515 29.1912 126.983 30.1496C127.229 30.3094 127.465 30.4852 127.688 30.6758C128.326 31.2079 128.837 31.8756 129.184 32.6302C129.531 33.3849 129.705 34.2075 129.694 35.0381Z" fill="#383838"/>
<path d="M105.165 38.0496L97.3753 54.1527C97.2719 54.0752 97.1686 54 97.0652 53.9272C94.0455 51.713 91.4846 48.9335 89.5246 45.7429L95.2799 33.8518L95.5077 33.3796L105.165 38.0496Z" fill="#383838"/>
<path d="M104.413 39.9031L97.3284 54.1175C97.2814 54.0822 97.2367 54.0493 97.1898 54.0188L104.265 39.8303C104.275 39.8105 104.293 39.7955 104.314 39.7885C104.335 39.7815 104.358 39.783 104.378 39.7927C104.397 39.8027 104.412 39.8199 104.418 39.8406C104.425 39.8613 104.423 39.8838 104.413 39.9031Z" fill="white"/>
<path d="M140.336 42.2991C138.923 45.4995 136.941 48.416 134.484 50.9062L128.372 45.7922L120.608 39.2946L127.688 30.6758L127.709 30.65L140.336 42.2991Z" fill="#383838"/>
<path d="M128.466 45.8549C128.486 45.8539 128.505 45.8458 128.519 45.8319C128.533 45.818 128.542 45.7994 128.544 45.7795L128.947 41.0508C128.949 41.029 128.942 41.0073 128.928 40.9905C128.914 40.9737 128.894 40.9632 128.872 40.9613C128.851 40.9597 128.829 40.9667 128.812 40.9808C128.796 40.9948 128.785 41.0148 128.783 41.0365L128.38 45.7654C128.378 45.7872 128.385 45.8089 128.399 45.8256C128.413 45.8423 128.433 45.8528 128.455 45.8547L128.466 45.8549Z" fill="white"/>
<path d="M249.316 183.879C264.451 183.879 276.72 171.61 276.72 156.475C276.72 141.34 264.451 129.071 249.316 129.071C234.181 129.071 221.912 141.34 221.912 156.475C221.912 171.61 234.181 183.879 249.316 183.879Z" fill="white"/>
<path opacity="0.09" d="M221.912 156.474C221.912 161.894 223.519 167.192 226.53 171.699C229.541 176.205 233.821 179.718 238.828 181.792C243.836 183.866 249.346 184.409 254.661 183.351C259.977 182.294 264.86 179.684 268.692 175.852C272.525 172.019 275.135 167.136 276.192 161.821C277.25 156.505 276.707 150.995 274.633 145.988C272.559 140.98 269.046 136.701 264.54 133.689C260.033 130.678 254.735 129.071 249.315 129.071C245.713 129.058 242.144 129.758 238.813 131.13C235.482 132.503 232.456 134.52 229.909 137.068C227.362 139.615 225.343 142.641 223.971 145.972C222.599 149.303 221.899 152.872 221.912 156.474Z" fill="#2C4981"/>
<path d="M261.751 141.352C261.313 146.427 261.719 148.147 263.826 151.054C265.603 153.505 255.491 151.422 251.018 150.625L254.965 139.087C254.965 139.087 261.904 139.571 261.751 141.352Z" fill="#0A0A0A"/>
<path d="M246.316 139.241C244.996 144.16 245.144 145.682 242.561 148.265C240.42 150.406 248.764 150.841 253.241 151.619L253.467 139.427C253.467 139.427 246.78 137.514 246.316 139.241Z" fill="#0A0A0A"/>
<path d="M246.761 153.548C246.79 153.544 247.118 158.984 253.437 158.509C257.812 158.182 259.372 153.54 259.472 153.54C258.972 153.457 258.479 153.337 257.997 153.182C257.308 152.812 256.455 152.427 256.233 151.089C256.105 150.318 256.323 146.374 256.256 145.592L249.54 147.091C249.634 148.739 250.292 152.559 247.99 153.235C247.606 153.347 247.194 153.45 246.761 153.548Z" fill="#FFCAB6"/>
<path opacity="0.5" d="M249.446 151.674C249.551 151.335 249.619 150.986 249.648 150.632C249.722 149.825 249.708 149.012 249.605 148.208C250.969 148.024 252.255 147.461 253.316 146.582C253.441 147.043 254.127 149.055 253.937 149.492C253.578 150.32 251.891 151.674 249.446 151.674Z" fill="#0C0C0C"/>
<path d="M250.315 149.98C252.962 150.236 256.388 149.177 257.097 145.651L257.738 142.47C258.447 138.944 257.171 135.713 253.851 135.045C250.531 134.377 247.475 136.736 246.765 140.261L246.482 141.671C246.21 143.023 245.591 149.523 250.315 149.98Z" fill="#FFCAB6"/>
<path d="M260.942 143.474L257.956 143.147C252.112 142.072 250.681 137.357 250.681 137.357C250.681 137.357 248.23 140.63 246.148 139.878C246.148 139.878 246.819 131.987 256.059 133.374C259.689 133.919 261.75 136.928 261.75 140.965C261.75 143.932 260.942 143.474 260.942 143.474Z" fill="#0A0A0A"/>
<path opacity="0.1" d="M252.854 144.874C252.892 144.554 252.57 144.253 252.134 144.201C251.699 144.149 251.314 144.366 251.276 144.686C251.238 145.005 251.56 145.306 251.996 145.358C252.432 145.41 252.816 145.193 252.854 144.874Z" fill="#0C0C0C"/>
<path opacity="0.1" d="M247.395 144.082C247.356 144.401 246.972 144.618 246.536 144.566C246.461 144.557 246.387 144.54 246.315 144.516C246.295 144.136 246.294 143.77 246.305 143.431C246.426 143.4 246.551 143.393 246.675 143.409C247.109 143.46 247.432 143.762 247.395 144.082Z" fill="#0C0C0C"/>
<path opacity="0.5" d="M249.319 145.068H249.313C249.178 145.04 249.045 145.005 248.915 144.962C248.72 144.897 248.465 144.79 248.5 144.614C248.541 144.413 249.527 142.356 249.64 142.122C249.644 142.112 249.651 142.102 249.659 142.095C249.668 142.087 249.677 142.081 249.688 142.077C249.699 142.073 249.71 142.071 249.722 142.072C249.733 142.072 249.744 142.075 249.755 142.08C249.765 142.085 249.774 142.092 249.782 142.1C249.789 142.109 249.795 142.119 249.799 142.13C249.802 142.141 249.804 142.152 249.803 142.163C249.802 142.175 249.799 142.186 249.794 142.196C249.373 143.072 248.695 144.512 248.668 144.647C248.87 144.785 249.103 144.872 249.346 144.901C249.368 144.905 249.387 144.918 249.399 144.936C249.412 144.954 249.417 144.976 249.413 144.998C249.41 145.02 249.398 145.039 249.38 145.053C249.363 145.066 249.341 145.072 249.319 145.07V145.068Z" fill="#0C0C0C"/>
<path d="M256.675 146.684C257.684 146.887 258.719 145.972 258.922 144.963C259.125 143.954 258.419 143.233 257.41 143.031L256.754 143.602L255.808 146.509L256.675 146.684Z" fill="#FFCAB6"/>
<path d="M248.924 140.481C248.8 140.393 248.664 140.321 248.52 140.269C248.375 140.215 248.223 140.181 248.068 140.168C247.914 140.153 247.758 140.162 247.606 140.193C247.452 140.225 247.303 140.275 247.163 140.343L247.158 140.345C247.143 140.351 247.126 140.35 247.111 140.344C247.096 140.338 247.084 140.326 247.077 140.312C247.07 140.297 247.069 140.28 247.074 140.265C247.078 140.249 247.089 140.236 247.103 140.228C247.252 140.149 247.41 140.089 247.574 140.05C247.74 140.01 247.91 139.995 248.08 140.005C248.424 140.024 248.757 140.136 249.043 140.327C249.064 140.342 249.078 140.364 249.083 140.39C249.087 140.415 249.082 140.441 249.067 140.462C249.053 140.483 249.031 140.498 249.006 140.503C248.981 140.508 248.954 140.503 248.933 140.489L248.931 140.488L248.924 140.481Z" fill="#0C0C0C"/>
<path d="M251.643 140.857C251.981 140.789 252.331 140.814 252.656 140.928C252.817 140.984 252.968 141.063 253.106 141.163C253.242 141.262 253.366 141.378 253.474 141.508C253.485 141.521 253.492 141.538 253.491 141.555C253.49 141.572 253.482 141.588 253.47 141.6C253.457 141.612 253.44 141.618 253.423 141.617C253.405 141.616 253.389 141.609 253.377 141.596L253.374 141.592C253.27 141.475 253.151 141.372 253.021 141.284C252.893 141.197 252.752 141.129 252.603 141.083C252.308 140.991 251.994 140.978 251.693 141.046L251.685 141.048C251.66 141.054 251.633 141.05 251.611 141.037C251.589 141.023 251.573 141.002 251.567 140.976C251.56 140.951 251.564 140.924 251.578 140.902C251.591 140.88 251.613 140.864 251.638 140.857L251.643 140.857Z" fill="#0C0C0C"/>
<path d="M236.583 180.745C235.506 180.275 234.7 179.773 232.86 178.387C231.533 177.39 230.299 176.275 229.175 175.054L238.62 157.08L239.031 156.299L247.551 160.778L240.16 174.842L240.126 174.904L240.191 175.154" fill="#AC3742"/>
<path d="M267.997 166.286C267.748 168.952 267.695 173.097 267.712 176.782C264.15 180.013 259.801 182.249 255.101 183.265C250.401 184.282 245.517 184.043 240.938 182.572C240.378 177.015 239.545 168.847 239.075 163.818C238.599 158.608 237.2 156.888 241.02 154.393C243.124 153.322 246.461 153.228 247.961 153.228C247.452 158.165 257.858 158.773 258.117 153.228C265.9 153.955 269.503 154.136 267.997 166.286Z" fill="#AC3742"/>
<path d="M248.431 145.763C249.292 146.201 250.273 146.339 251.221 146.156C251.254 146.15 251.288 146.153 251.319 146.166C251.35 146.178 251.377 146.199 251.396 146.226C251.416 146.253 251.427 146.285 251.429 146.319C251.431 146.352 251.424 146.385 251.407 146.415C251.125 146.912 250.455 147.764 249.305 147.417C248.563 147.193 248.282 146.43 248.178 145.957C248.17 145.924 248.172 145.89 248.184 145.858C248.195 145.827 248.216 145.799 248.242 145.779C248.269 145.758 248.301 145.746 248.335 145.743C248.368 145.741 248.402 145.748 248.431 145.763Z" fill="white"/>
<path d="M248.378 141.938C248.607 141.938 248.793 141.752 248.793 141.522C248.793 141.293 248.607 141.106 248.378 141.106C248.148 141.106 247.962 141.293 247.962 141.522C247.962 141.752 248.148 141.938 248.378 141.938Z" fill="#0C0C0C"/>
<path d="M252.372 142.637C252.602 142.637 252.788 142.451 252.788 142.221C252.788 141.992 252.602 141.806 252.372 141.806C252.143 141.806 251.957 141.992 251.957 142.221C251.957 142.451 252.143 142.637 252.372 142.637Z" fill="#0C0C0C"/>
<path d="M239.995 172.789H240.003C240.02 172.787 240.036 172.778 240.046 172.764C240.056 172.75 240.061 172.733 240.058 172.716L239.323 165.314C239.322 165.305 239.32 165.297 239.316 165.29C239.311 165.282 239.306 165.276 239.299 165.271C239.292 165.266 239.284 165.262 239.276 165.26C239.268 165.258 239.259 165.258 239.251 165.259C239.243 165.26 239.235 165.263 239.227 165.267C239.22 165.271 239.214 165.277 239.209 165.284C239.203 165.29 239.2 165.298 239.198 165.306C239.196 165.314 239.195 165.323 239.196 165.331L239.931 172.734C239.933 172.75 239.941 172.764 239.953 172.774C239.965 172.784 239.98 172.789 239.995 172.789Z" fill="#0C0C0C"/>
<path d="M239.035 167.151H231.534V176.35H239.035V167.151Z" fill="white"/>
<path d="M235.964 171.751C235.964 171.143 236.144 170.549 236.482 170.044C236.819 169.539 237.299 169.146 237.86 168.913C238.422 168.681 239.039 168.62 239.635 168.739C240.231 168.857 240.778 169.15 241.208 169.58C241.637 170.009 241.93 170.557 242.048 171.153C242.166 171.748 242.106 172.366 241.873 172.927C241.64 173.488 241.247 173.968 240.742 174.306C240.236 174.643 239.643 174.823 239.035 174.823C238.221 174.822 237.44 174.498 236.864 173.922C236.288 173.346 235.964 172.565 235.964 171.751ZM237.221 171.751C237.221 172.109 237.328 172.46 237.527 172.758C237.726 173.056 238.01 173.289 238.341 173.426C238.672 173.563 239.037 173.599 239.389 173.529C239.741 173.459 240.064 173.287 240.317 173.033C240.571 172.779 240.744 172.456 240.814 172.105C240.884 171.753 240.848 171.388 240.71 171.057C240.573 170.725 240.341 170.442 240.043 170.243C239.744 170.044 239.394 169.937 239.035 169.937C238.554 169.938 238.093 170.129 237.753 170.469C237.413 170.809 237.222 171.27 237.221 171.751Z" fill="white"/>
<path d="M238.975 172.889C239 172.733 239.08 172.592 239.199 172.488C239.318 172.385 239.47 172.328 239.628 172.325C239.623 172.319 239.62 172.312 239.618 172.304L239.395 172.256C239.239 172.225 239.099 172.141 238.998 172.019C238.897 171.897 238.841 171.743 238.84 171.585C238.842 171.485 238.865 171.387 238.909 171.298C238.953 171.208 239.016 171.13 239.094 171.068C239.172 171.006 239.263 170.962 239.36 170.939C239.457 170.917 239.557 170.916 239.655 170.937L240.181 171.051C240.181 171.049 240.181 171.047 240.181 171.045C240.183 171.041 240.184 171.036 240.186 171.033C240.049 170.968 239.937 170.859 239.87 170.723C239.803 170.587 239.784 170.432 239.816 170.284C239.873 169.894 240.341 169.766 240.683 169.84L242.048 170.084L241.587 169.779C241.442 169.678 241.34 169.526 241.303 169.353C241.265 169.181 241.295 169 241.385 168.848C241.435 168.771 241.499 168.705 241.575 168.654C241.651 168.603 241.736 168.568 241.826 168.551C241.915 168.534 242.007 168.536 242.097 168.556C242.186 168.576 242.27 168.614 242.344 168.667L247.845 174.963L246.624 174.408C246.245 174.966 245.708 175.398 245.082 175.648C244.455 175.898 243.769 175.956 243.11 175.814L240.127 175.163C239.971 175.133 239.83 175.049 239.729 174.927C239.628 174.804 239.572 174.651 239.571 174.492C239.574 174.349 239.622 174.21 239.708 174.096C239.795 173.982 239.915 173.898 240.053 173.858C240.048 173.848 240.047 173.837 240.048 173.826C240.05 173.816 240.054 173.806 240.06 173.798C240.067 173.789 240.075 173.783 240.084 173.779L239.534 173.66C239.36 173.626 239.206 173.528 239.103 173.385C238.999 173.241 238.953 173.064 238.975 172.889Z" fill="#FFCAB6"/>
<path opacity="0.2" d="M241.178 171.272C241.192 171.269 241.205 171.261 241.214 171.25C241.223 171.238 241.228 171.224 241.228 171.209C241.228 171.195 241.222 171.18 241.213 171.169C241.203 171.158 241.19 171.151 241.176 171.148L240.254 170.992C240.246 170.99 240.237 170.99 240.229 170.992C240.22 170.994 240.213 170.997 240.206 171.002C240.198 171.007 240.192 171.013 240.188 171.02C240.183 171.027 240.18 171.035 240.179 171.043C240.177 171.052 240.178 171.06 240.18 171.069C240.182 171.077 240.185 171.085 240.19 171.092C240.195 171.098 240.202 171.104 240.209 171.109C240.216 171.113 240.225 171.116 240.233 171.117L241.154 171.273C241.162 171.274 241.17 171.274 241.178 171.272Z" fill="#0C0C0C"/>
<path opacity="0.2" d="M240.956 172.576C240.97 172.573 240.983 172.565 240.992 172.553C241.001 172.542 241.006 172.528 241.006 172.513C241.005 172.498 241 172.484 240.991 172.473C240.981 172.462 240.968 172.454 240.954 172.452L239.691 172.228C239.683 172.226 239.674 172.226 239.666 172.227C239.657 172.229 239.649 172.232 239.642 172.237C239.635 172.241 239.629 172.248 239.624 172.255C239.619 172.262 239.616 172.27 239.615 172.278C239.613 172.287 239.614 172.295 239.615 172.304C239.617 172.312 239.621 172.32 239.626 172.327C239.631 172.334 239.638 172.34 239.645 172.344C239.652 172.348 239.661 172.351 239.669 172.352L240.932 172.576C240.939 172.578 240.948 172.577 240.956 172.576Z" fill="#0C0C0C"/>
<path opacity="0.2" d="M240.724 173.989C240.738 173.986 240.751 173.978 240.76 173.966C240.769 173.955 240.774 173.94 240.774 173.925C240.773 173.911 240.768 173.897 240.758 173.885C240.748 173.874 240.735 173.867 240.72 173.865L240.121 173.773C240.105 173.772 240.089 173.776 240.077 173.786C240.064 173.796 240.055 173.811 240.053 173.827C240.051 173.843 240.054 173.859 240.063 173.872C240.073 173.885 240.087 173.895 240.102 173.898L240.701 173.99C240.709 173.991 240.716 173.991 240.724 173.989Z" fill="#0C0C0C"/>
<path d="M271.818 172.111C268.443 176.964 263.593 180.6 257.987 182.479L257.985 182.476C256.74 182.233 244.863 177.543 243.292 177.235L245.011 169.216C249.425 170.094 257.475 173.48 261.915 174.362L258.783 160.162C258.669 159.535 258.681 158.891 258.819 158.269C258.956 157.646 259.215 157.057 259.582 156.536C259.948 156.014 260.414 155.571 260.954 155.231C261.493 154.891 262.094 154.662 262.723 154.556C263.351 154.45 263.995 154.47 264.615 154.615C265.236 154.76 265.822 155.026 266.339 155.399C266.856 155.772 267.294 156.244 267.627 156.787C267.96 157.331 268.182 157.935 268.28 158.565L271.818 172.111Z" fill="#AC3742"/>
<path d="M265.279 175.407C265.295 175.407 265.311 175.4 265.322 175.389C265.334 175.378 265.341 175.364 265.342 175.348C265.343 175.332 265.339 175.316 265.329 175.303C265.319 175.29 265.305 175.282 265.289 175.279L261.951 174.147C261.943 174.146 261.934 174.146 261.926 174.148C261.918 174.15 261.91 174.154 261.903 174.159C261.896 174.164 261.891 174.17 261.886 174.177C261.882 174.185 261.879 174.193 261.878 174.201C261.876 174.218 261.88 174.235 261.89 174.249C261.9 174.262 261.915 174.271 261.932 174.274L265.27 175.406C265.273 175.407 265.276 175.407 265.279 175.407Z" fill="#0C0C0C"/>
<path d="M262.002 174.201C262.004 174.221 261.998 174.241 261.985 174.257C261.978 174.264 261.969 174.269 261.959 174.272C261.95 174.275 261.94 174.276 261.93 174.274L245.118 169.312L243.433 177.205L257.91 182.502C257.865 182.517 257.818 182.532 257.773 182.547C257.741 182.557 257.709 182.568 257.675 182.577L243.339 177.313C243.323 177.309 243.309 177.298 243.3 177.284C243.292 177.27 243.289 177.252 243.292 177.236L245.011 169.216C245.013 169.208 245.017 169.201 245.022 169.194C245.027 169.187 245.034 169.182 245.041 169.178C245.048 169.173 245.056 169.17 245.065 169.168C245.073 169.167 245.082 169.167 245.09 169.169L261.861 174.138L259.963 166.31C259.96 166.293 259.965 166.276 259.975 166.262C259.985 166.249 260 166.24 260.016 166.237C260.025 166.235 260.033 166.235 260.041 166.237C260.05 166.239 260.058 166.242 260.064 166.247C260.071 166.252 260.077 166.258 260.082 166.265C260.087 166.272 260.09 166.28 260.091 166.288L262.002 174.201Z" fill="#0C0C0C"/>
<path d="M42.7815 163.972C42.7658 163.972 42.7504 163.969 42.7359 163.963C42.7217 163.957 42.7088 163.948 42.6979 163.937C42.6871 163.926 42.6785 163.913 42.6727 163.899C42.6669 163.885 42.6639 163.869 42.664 163.854C42.6641 163.838 42.6672 163.823 42.6732 163.809L47.276 152.868C47.2881 152.84 47.3112 152.817 47.34 152.805C47.3689 152.794 47.4013 152.794 47.43 152.806C47.4587 152.818 47.4814 152.841 47.4932 152.87C47.5049 152.899 47.5047 152.931 47.4926 152.96L42.8898 163.9C42.8808 163.921 42.8658 163.939 42.8465 163.952C42.8273 163.965 42.8046 163.972 42.7815 163.972Z" fill="#0C0C0C"/>
<path d="M69.8661 164.096H69.8609C69.8455 164.097 69.8301 164.095 69.8156 164.089C69.8011 164.084 69.7878 164.076 69.7764 164.066C69.765 164.055 69.7558 164.043 69.7493 164.029C69.7427 164.015 69.739 164 69.7383 163.984L69.2253 152.794C69.2249 152.764 69.2362 152.734 69.2569 152.711C69.2777 152.688 69.3063 152.674 69.3371 152.672C69.3525 152.671 69.3679 152.673 69.3825 152.678C69.397 152.684 69.4103 152.692 69.4217 152.702C69.4332 152.713 69.4424 152.725 69.449 152.739C69.4555 152.753 69.4592 152.768 69.4599 152.784L69.973 163.973C69.9745 164.004 69.9642 164.033 69.9443 164.056C69.9244 164.079 69.8963 164.094 69.8661 164.096Z" fill="#0C0C0C"/>
</svg>
